PathFileType	4	(X/Y/Z)	pose_F01_0-96.trc
DataRate	CameraRate	NumFrames	NumMarkers	Units	OrigDataRate	OrigDataStartFrame	OrigNumFrames
30	30	5	21	m	30	72	96
Frame#	Time	CHip			RHip			RKnee			RAnkle			RBigToe			RSmallToe			RHeel			LHip			LKnee			LAnkle			LBigToe			LSmallToe			LHeel			Neck			Nose			RShoulder			RElbow			RWrist			LShoulder			LElbow			LWrist			
		X1	Y1	Z1	X2	Y2	Z2	X3	Y3	Z3	X4	Y4	Z4	X5	Y5	Z5	X6	Y6	Z6	X7	Y7	Z7	X8	Y8	Z8	X9	Y9	Z9	X10	Y10	Z10	X11	Y11	Z11	X12	Y12	Z12	X13	Y13	Z13	X14	Y14	Z14	X15	Y15	Z15	X16	Y16	Z16	X17	Y17	Z17	X18	Y18	Z18	X19	Y19	Z19	X20	Y20	Z20	X21	Y21	Z21	
72	2.4	-0.11445921486018276	1.8487799968118914	-0.5091958151583071	-0.13046252966486468	1.8469725690489083	-0.4503805694338322	-0.1535489771077063	1.71839893958926	-0.42299657494042975	-0.12766147624658136	1.6056537549410674	-0.3644695238657362							-0.11480111676166123	1.5959984509165648	-0.35465164272646277	-0.09961898130206058	1.8522318373786388	-0.5781459478027534	-0.13257685721572632	1.7302533101766424	-0.6072663717335106	-0.10253366532764502	1.5945037642429014	-0.6042941912923131	-0.1301167963142024	1.565563786142124	-0.6308250834615844	-0.11475580597896376	1.5717360451025826	-0.6470491198019745	-0.09253843224780942	1.5903122012146815	-0.5930967164414169	-0.14041631016037234	2.0081485404636075	-0.5335017540662408	-0.18238869169870414	2.0567361795983996	-0.5603388463530801	-0.15595237764685244	2.0026933364985013	-0.4470690028221443	-0.14934500451979651	1.915518135722241	-0.40322250254820075	-0.1635792091878477	1.8355063146981256	-0.33991222120454456	-0.12272157734295168	2.0134437139031514	-0.6197068162420869	-0.1573990096157454	1.9545245379820768	-0.6716219825771687	-1.1836953409665343	1.8581041719296152	0.25231833529090375
73	2.433333333333333	-0.12031288099789564	1.8614531874845606	-0.5042249047823243	-0.13148346099429123	1.8572428533191652	-0.44656632494005916	-0.15176105010977195	1.7195157570549724	-0.41613440796320944	-0.12766147624658136	1.6056537549410674	-0.3644695238657362							-0.11480111676166123	1.5959984509165648	-0.35465164272646277	-0.10691702574355443	1.8646336830741257	-0.5673518278364014	-0.13133136322029063	1.732839667633057	-0.6046048560869847	-0.10140068947556738	1.595786628774855	-0.6015250636677055	-0.12984445139524606	1.5647583433393726	-0.6309359204743743	-0.11230683102532016	1.5704582753512863	-0.6492922969352546	-0.09218251407057822	1.5912580676989143	-0.5936372196093238	-0.14127769579329008	2.0142169668476915	-0.529082488812445	-0.18125581670875854	2.0705838356583524	-0.5602949189437386	-0.15570336327564538	2.0089189595596815	-0.4480388451352739	-0.15217494854282876	1.9267644480341644	-0.39760960221630776	-0.1653620489742524	1.8492718207945755	-0.3309809823166403	-0.12156067986629718	2.0219243046603643	-0.6169921647858453	-0.14166510652700467	1.9750213947457715	-0.6721231030766435	-1.225728920738152	1.8541301523147249	0.32594713752866056
74	2.466666666666667	-0.12216289105056452	1.8677452371411043	-0.5028729939153145	-0.13338605116772997	1.8647850874647667	-0.44554005312190603	-0.1471756397408755	1.7225901600019997	-0.41274495512550907	-0.12766147624658136	1.6056537549410674	-0.3644695238657362							-0.11480111676166123	1.5959984509165648	-0.35465164272646277	-0.1110540275905049	1.86957191658544	-0.5633743204657897	-0.1301913575658961	1.736844729388255	-0.6022396019231906	-0.10212267115672445	1.5975734898598664	-0.6054654420024684	-0.12992076227385715	1.5647749254037617	-0.630847774251596	-0.25513200445856504	1.504986813388662	-1.2030372096719197	-0.09198771044111333	1.592651246540651	-0.5943080930610392	-0.1402661766188328	2.0216544882657246	-0.5270876242090501	-0.179286581230226	2.0753391888149895	-0.5550134692734119	-0.15667449644652154	2.0175244675894635	-0.4452103934922354	-0.15251730559951907	1.9358052088972488	-0.39995752785847416	-0.16724713707097108	1.865241731572225	-0.33735337221134454	-0.12267663280421662	2.025164631502474	-0.6119093821114191	-0.13953998781632224	1.970659980060013	-0.6627444995084681	-0.17889920072377524	1.9203406250940085	-0.7332007392528089
75	2.5	-0.12599168467825522	1.8722206289526238	-0.498840691444937	-0.13904065929604803	1.8694283140186678	-0.43930037979973113	-0.147321525095248	1.7240217853538369	-0.41248852585174406	-0.12766147624658136	1.6056537549410674	-0.3644695238657362							-0.11480111676166123	1.5959984509165648	-0.35465164272646277	-0.11501132805586858	1.8743849513435724	-0.5593401852800745	-0.1294597063509746	1.7380198859908922	-0.5903066282765581	-0.10146677063138838	1.5959672937103804	-0.6015323850014054	-0.12896008896160294	1.5644627444573276	-0.627562768905747	-0.11450238057563493	1.570794987064401	-0.6470592874191643	-0.09232419592606711	1.5914663452378988	-0.5936124455746487	-0.13767487281375737	2.0261487010852752	-0.5188892860200246	-0.17429779663791403	2.083607253022597	-0.5488470063200368	-0.15473601095322728	2.0220748646454725	-0.43972113872245067	-0.15335288968890604	1.9380348411264774	-0.3948274554630381	-0.16727287013269454	1.865214366367182	-0.3372376014809774	-0.11944884634370301	2.030658361661858	-0.6010359554748238	-0.1356089823530364	1.9710171412816218	-0.6582466746806307	-0.16724069012981496	1.909470038577465	-0.7197562215449145
76	2.533333333333333	-0.13160901714300005	1.876300757841896	-0.4894227379326954	-0.14515436669852058	1.872142309547064	-0.4329658691591175	-0.14868623125565522	1.7327965147573972	-0.40775572832285195	-0.12766147624658136	1.6056537549410674	-0.3644695238657362							-0.11480111676166123	1.5959984509165648	-0.35465164272646277	-0.12162274863246636	1.878287536826657	-0.5529279230326312	-0.12652134428233647	1.7380984477809829	-0.5892578434598713	-0.10132135252864202	1.5977518380561828	-0.6020628968463964	-0.1319553859993018	1.566842874601564	-0.6292170114099307	-0.11486203919384311	1.572231086591476	-0.6470855997470716	-0.09243408844997995	1.5922169620965636	-0.5936208187512205	-0.13775304546810285	2.0284702200647238	-0.5106521919220673	-0.17038932413595512	2.0887453924133332	-0.5464076053010091	-0.15183677384153776	2.023332185461502	-0.42983706234844227	-0.15226645543714473	1.9352705998100608	-0.39060606929309477	-0.1672407339282121	1.8516413482505931	-0.32916773452836	-0.11987577272414253	2.0313837659147054	-0.5930980627252802	-0.13158297994142343	1.9577224652490932	-0.6405399879141174	-0.15271467789562043	1.8937565599634527	-0.7022272376552089
